<svg width="100" height="20" viewBox="0 0 100 20" fill="none" xmlns="http://www.w3.org/2000/svg">
  <g fill="currentColor">
    <path d="M0 0h2l3 12 3-12h2l-4 16h-2L0 0z"/>
    <path d="M12 0h2v16h-2V0z"/>
    <path d="M16 0h6v2h-4v5h3v2h-3v5h4v2h-6V0z"/>
    <path d="M24 0h2l3 6 3-6h2l-4 8 4 8h-2l-3-6-3 6h-2l4-8-4-8z"/>
  </g>
  <g fill="url(#gradient)">
    <path d="M36 0h4c1 0 2 1 2 2v5c0 1-1 2-2 2h-2v7h-2V0zm2 2v5h2V2h-2z"/>
    <path d="M44 0h2l4 16h-2l-1-3h-4l-1 3h-2l4-16zm1 3l-1.5 8h3L45 3z"/>
    <path d="M54 0h2v14h4v2h-6V0z"/>
    <path d="M62 0h2v14h4v2h-6V0z"/>
    <path d="M70 0h6v2h-4v5h3v2h-3v5h4v2h-6V0z"/>
    <path d="M78 0h4c1 0 2 1 2 2v5c0 1-1 2-2 2h-2v7h-2V0zm2 2v5h2V2h-2z"/>
    <path d="M86 0h2l4 16h-2l-1-3h-4l-1 3h-2l4-16zm1 3l-1.5 8h3L87 3z"/>
  </g>
  <defs>
    <linearGradient id="gradient" x1="0%" y1="0%" x2="100%" y2="0%">
      <stop offset="0%" style="stop-color:#10B981;stop-opacity:1" />
      <stop offset="100%" style="stop-color:#06D6A0;stop-opacity:1" />
    </linearGradient>
  </defs>
</svg>