<svg xmlns="http://www.w3.org/2000/svg" viewBox="0 0 24 24">
  <path fill="#306998" d="M11.95 1.85c-2.45 0-4.65.15-6.5.45-2.75.45-3.25 1.4-3.25 3.15v2.3h6.5v.8H2.8c-1.9 0-3.55 1.15-4.05 3.3-.6 2.5-.6 4.05 0 6.6.45 1.95 1.5 3.3 3.3 3.3h2.1v-2.8c0-2.15 1.85-4.05 4.05-4.05h6.5c1.8 0 3.25-1.5 3.25-3.3V5.45c0-1.8-1.5-3.1-3.25-3.15-1.1-.15-2.25-.25-3.15-.25zm-3.6 2.1a1.25 1.25 0 1 1 0 2.5 1.25 1.25 0 0 1 0-2.5z"/>
  <path fill="#FFD43B" d="M18.25 7.4v2.85c0 2.2-1.85 4.05-4.05 4.05H7.7c-1.75 0-3.25 1.5-3.25 3.3v6.15c0 1.8 1.55 2.8 3.25 3.3 2.05.55 4 .65 6.5 0 1.65-.45 3.25-1.35 3.25-3.3v-2.3H11v-.8h9.9c1.9 0 2.6-1.3 3.25-3.3.65-2.05.65-4 0-6.6-.45-1.9-1.35-3.3-3.25-3.3h-2.65zm-3.55 8.75a1.25 1.25 0 1 1 0 2.5 1.25 1.25 0 0 1 0-2.5z"/>
</svg>
