<svg xmlns="http://www.w3.org/2000/svg" class="w-full h-full" viewBox="0 0 32 32">
  <!-- Dark theme version - bright colors for dark mode -->
  <g class="dark:block hidden">
    <path fill="#4B8BBE" d="M15.885,2.1c-7.1,0-6.651,3.07-6.651,3.07v3.19h6.752v0.96H6.545c0,0-4.27-0.485-4.27,6.3 c0,6.757,3.736,6.53,3.736,6.53h2.225v-3.13c0,0-0.12-3.737,3.693-3.737h6.354c0,0,3.56,0.06,3.56-3.44V5.5c0,0,0.677-3.4-5.957-3.4 Z M11.612,4.26c0.677,0,1.217,0.557,1.217,1.233c0,0.675-0.539,1.233-1.217,1.233c-0.678,0-1.217-0.558-1.217-1.233 C10.395,4.817,10.934,4.26,11.612,4.26z" />
    <path fill="#FFE05A" d="M16.115,29.9c7.1,0,6.65-3.07,6.65-3.07v-3.19h-6.75v-0.96h9.44c0,0,4.27,0.485,4.27-6.3 c0-6.757-3.736-6.53-3.736-6.53h-2.225v3.13c0,0,0.12,3.737-3.693,3.737H13.72c0,0-3.56-0.06-3.56,3.44V26.5c0,0-0.677,3.4,5.957,3.4 Z M20.388,27.74c-0.677,0-1.217-0.557-1.217-1.233c0-0.675,0.539-1.233,1.217-1.233c0.678,0,1.217,0.558,1.217,1.233 C21.605,27.183,21.066,27.74,20.388,27.74z" />
  </g>
  
  <!-- Light theme version - darker colors for light mode -->
  <g class="dark:hidden block">
    <path fill="#306998" d="M15.885,2.1c-7.1,0-6.651,3.07-6.651,3.07v3.19h6.752v0.96H6.545c0,0-4.27-0.485-4.27,6.3 c0,6.757,3.736,6.53,3.736,6.53h2.225v-3.13c0,0-0.12-3.737,3.693-3.737h6.354c0,0,3.56,0.06,3.56-3.44V5.5c0,0,0.677-3.4-5.957-3.4 Z M11.612,4.26c0.677,0,1.217,0.557,1.217,1.233c0,0.675-0.539,1.233-1.217,1.233c-0.678,0-1.217-0.558-1.217-1.233 C10.395,4.817,10.934,4.26,11.612,4.26z" />
    <path fill="#FFD43B" d="M16.115,29.9c7.1,0,6.65-3.07,6.65-3.07v-3.19h-6.75v-0.96h9.44c0,0,4.27,0.485,4.27-6.3 c0-6.757-3.736-6.53-3.736-6.53h-2.225v3.13c0,0,0.12,3.737-3.693,3.737H13.72c0,0-3.56-0.06-3.56,3.44V26.5c0,0-0.677,3.4,5.957,3.4 Z M20.388,27.74c-0.677,0-1.217-0.557-1.217-1.233c0-0.675,0.539-1.233,1.217-1.233c0.678,0,1.217,0.558,1.217,1.233 C21.605,27.183,21.066,27.74,20.388,27.74z" />
  </g>
</svg>
</svg>