<svg xmlns="http://www.w3.org/2000/svg" class="w-full h-full" viewBox="0 0 24 24">
  <path fill="#61DAFB" d="M12 9.861a2.139 2.139 0 100 4.278 2.139 2.139 0 000-4.278zm-5.992 6.394l-.472-.12C2.018 15.246 0 13.737 0 11.996s2.018-3.25 5.536-4.139l.472-.119.133.468a23.53 23.53 0 001.363 3.578l.101.213-.101.213a23.307 23.307 0 00-1.363 3.578l-.133.467zM5.317 8.95c-2.674.751-4.315 1.9-4.315 3.046 0 1.145 1.641 2.294 4.315 3.046.412-1.305.893-2.512 1.434-3.584-.541-1.072-1.022-2.278-1.434-3.508zm12.675 6.424l-.133-.469a23.357 23.357 0 00-1.364-3.577l-.101-.213.101-.213a23.42 23.42 0 001.364-3.578l.133-.468.473.119c3.517.889 5.535 2.398 5.535 4.14s-2.018 3.25-5.535 4.139l-.473.12zm-.491-4.259c.542 1.072 1.023 2.278 1.434 3.584 2.674-.752 4.315-1.901 4.315-3.046 0-1.146-1.641-2.294-4.315-3.046-.411 1.305-.892 2.512-1.434 3.508zM7.278 15.1l-.133-.469a23.357 23.357 0 01-1.364-3.577l-.101-.213.101-.213a23.42 23.42 0 011.364-3.578l.133-.468.473.119c1.68.424 3.309.958 4.851 1.587l.473.184-.355.353a23.552 23.552 0 00-2.422 2.749l-.137.184-.173.348a21.803 21.803 0 00-2.286 3.094l-.124.215-.472.12zm1.157-4.259c.247.465.478.926.691 1.383a22.005 22.005 0 001.588-1.865 20.703 20.703 0 00-1.898-1.865 23.128 23.128 0 00-1.486 2.179 21.483 21.483 0 011.105.168zm8.288.022c.485-.691.929-1.424 1.334-2.197a.937.937 0 00-.087-.018c-.621-.146-1.267-.279-1.932-.393a20.709 20.709 0 00-1.915 1.871c.727.534 1.406 1.144 2.023 1.847a22.3 22.3 0 00.577-1.11zm2.196-3.381c.608.152 1.185.329 1.724.529 1.053.389 1.724.865 1.724 1.26 0 .418-.745.917-1.895 1.319-.314.111-.65.213-1.006.305a22.853 22.853 0 00-1.325-2.247c.328-.48.65-.982.956-1.501.129-.197.246-.396.362-.595zm-12.407 0l.213.401c.271.487.545.971.826 1.43.215-.398.444-.787.685-1.166.651-1.017 1.373-1.975 2.158-2.868a25.43 25.43 0 00-1.848-.802c-.898-.347-1.673-.6-2.34-.755.32.12.59.213.306.304zm6.022 1.505c.708.61 1.377 1.28 1.993 2.005.616-.725 1.285-1.395 1.993-2.005a20.295 20.295 0 00-1.993-.459c-.7.145-1.356.312-1.993.459z"/>
</svg>
