<svg viewBox="0 0 24 24" width="24" height="24" fill="none" stroke="currentColor" stroke-width="2" stroke-linecap="round" stroke-linejoin="round" xmlns="http://www.w3.org/2000/svg">
  <circle cx="12" cy="12" r="11" fill="currentColor" opacity="0.08" />
  <path d="M7 11c-1.657 0-3-1.79-3-4 0-2.21 1.79-4 4-4 1.657 0 3 1.343 3 3v1h2V6c0-1.657 1.343-3 3-3 2.21 0 4 1.79 4 4 0 2.21-1.343 4-3 4h-1v2.5c0 2.05-1.492 3.5-3.5 3.5H13l1.5 3H9l1.5-3H9c-2.008 0-3.5-1.45-3.5-3.5V11H7z" fill="currentColor" opacity="0.15" />
</svg>
