<svg xmlns="http://www.w3.org/2000/svg" width="512" height="512" viewBox="0 0 512 512">
  <!-- Fondo oscuro -->
  <rect width="512" height="512" fill="#121212"/>
  
  <!-- Letra A en blanco -->
  <path d="M142.812 377L225.312 137H264.812L347.312 377H312.562L289.312 315.25H201.062L177.812 377H142.812ZM210.062 286.5H280.312L245.062 186.5L210.062 286.5Z" fill="white"/>
  
  <!-- Letra B en verde con un solo path continuo -->
  <path d="M259.453 137H320.453C336.52 137 350.12 139.75 361.253 145.25C372.453 150.75 380.87 158.417 386.503 168.25C392.203 178.083 395.053 189.417 395.053 202.25C395.053 215.083 392.203 226.417 386.503 236.25C380.87 246.083 372.453 253.75 361.253 259.25C350.12 264.75 336.52 267.5 320.453 267.5H282.703V276.5H320.453C336.52 276.5 350.12 279.25 361.253 284.75C372.453 290.25 380.87 297.917 386.503 307.75C392.203 317.583 395.053 328.917 395.053 341.75C395.053 354.583 392.203 365.917 386.503 375.75C380.87 385.583 372.453 393.25 361.253 398.75C350.12 404.25 336.52 407 320.453 407H259.453V383.75H320.453C337.853 383.75 350.53 380 358.483 372.5C366.437 365 370.413 354.917 370.413 342.25C370.413 329.583 366.437 319.417 358.483 311.75C350.53 304.083 337.853 300.25 320.453 300.25H282.703V244.25H320.453C337.853 244.25 350.53 240.5 358.483 233C366.437 225.5 370.413 215.417 370.413 202.75C370.413 190.083 366.437 179.917 358.483 172.25C350.53 164.583 337.853 160.75 320.453 160.75H282.703V137Z" fill="#00dd88"/>
</svg>
